<mxfile host="Electron" modified="2025-02-21T18:26:00.432Z" agent="Mozilla/5.0 (Windows NT 10.0; Win64; x64) AppleWebKit/537.36 (KHTML, like Gecko) draw.io/24.6.1 Chrome/124.0.6367.207 Electron/30.0.6 Safari/537.36" etag="Lf19Zb1RkOdIdHurPVzF" version="24.6.1" type="device">
  <diagram name="Page-1" id="abOvOw2f9fNOrEVFkh0A">
    <mxGraphModel dx="1047" dy="1013" grid="1" gridSize="10" guides="1" tooltips="1" connect="1" arrows="1" fold="1" page="1" pageScale="1" pageWidth="1100" pageHeight="850" math="0" shadow="0">
      <root>
        <mxCell id="0" />
        <mxCell id="1" parent="0" />
        <mxCell id="cV7byeC48yxA8YXZh4my-1" value="" style="ellipse;whiteSpace=wrap;html=1;aspect=fixed;fillColor=none;" vertex="1" parent="1">
          <mxGeometry x="60" y="70" width="200" height="200" as="geometry" />
        </mxCell>
        <mxCell id="cV7byeC48yxA8YXZh4my-2" value="" style="ellipse;whiteSpace=wrap;html=1;aspect=fixed;fillColor=none;" vertex="1" parent="1">
          <mxGeometry x="150" y="70" width="200" height="200" as="geometry" />
        </mxCell>
        <mxCell id="cV7byeC48yxA8YXZh4my-3" value="A" style="text;html=1;align=center;verticalAlign=middle;whiteSpace=wrap;rounded=0;" vertex="1" parent="1">
          <mxGeometry x="10" y="50" width="60" height="30" as="geometry" />
        </mxCell>
        <mxCell id="cV7byeC48yxA8YXZh4my-4" value="B" style="text;html=1;align=center;verticalAlign=middle;whiteSpace=wrap;rounded=0;" vertex="1" parent="1">
          <mxGeometry x="350" y="50" width="60" height="30" as="geometry" />
        </mxCell>
        <mxCell id="cV7byeC48yxA8YXZh4my-5" value="0" style="text;html=1;align=center;verticalAlign=middle;whiteSpace=wrap;rounded=0;" vertex="1" parent="1">
          <mxGeometry x="120" y="90" width="60" height="30" as="geometry" />
        </mxCell>
        <mxCell id="cV7byeC48yxA8YXZh4my-6" value="2" style="text;html=1;align=center;verticalAlign=middle;whiteSpace=wrap;rounded=0;" vertex="1" parent="1">
          <mxGeometry x="172" y="120" width="60" height="30" as="geometry" />
        </mxCell>
        <mxCell id="cV7byeC48yxA8YXZh4my-7" value="3" style="text;html=1;align=center;verticalAlign=middle;whiteSpace=wrap;rounded=0;" vertex="1" parent="1">
          <mxGeometry x="280" y="155" width="60" height="30" as="geometry" />
        </mxCell>
        <mxCell id="cV7byeC48yxA8YXZh4my-8" value="4" style="text;html=1;align=center;verticalAlign=middle;whiteSpace=wrap;rounded=0;" vertex="1" parent="1">
          <mxGeometry x="180" y="185" width="60" height="30" as="geometry" />
        </mxCell>
        <mxCell id="cV7byeC48yxA8YXZh4my-9" value="1" style="text;html=1;align=center;verticalAlign=middle;whiteSpace=wrap;rounded=0;" vertex="1" parent="1">
          <mxGeometry x="250" y="90" width="60" height="30" as="geometry" />
        </mxCell>
        <mxCell id="cV7byeC48yxA8YXZh4my-10" value="5" style="text;html=1;align=center;verticalAlign=middle;whiteSpace=wrap;rounded=0;" vertex="1" parent="1">
          <mxGeometry x="250" y="210" width="60" height="30" as="geometry" />
        </mxCell>
        <mxCell id="cV7byeC48yxA8YXZh4my-11" value="6" style="text;html=1;align=center;verticalAlign=middle;whiteSpace=wrap;rounded=0;" vertex="1" parent="1">
          <mxGeometry x="80" y="155" width="60" height="30" as="geometry" />
        </mxCell>
        <mxCell id="cV7byeC48yxA8YXZh4my-12" value="8" style="text;html=1;align=center;verticalAlign=middle;whiteSpace=wrap;rounded=0;" vertex="1" parent="1">
          <mxGeometry x="120" y="220" width="60" height="30" as="geometry" />
        </mxCell>
      </root>
    </mxGraphModel>
  </diagram>
</mxfile>
